<?xml version="1.0" encoding="UTF-8"?>
<svg version="1.1" xmlns="http://www.w3.org/2000/svg" width="611" height="609">
<path d="M0 0 C1.1778154 -0.00412399 2.3556308 -0.00824799 3.56913757 -0.01249695 C5.48640907 0.00368179 5.48640907 0.00368179 7.44241333 0.02018738 C8.81273886 0.02103432 10.18306576 0.0205572 11.5533905 0.01885986 C15.26171478 0.01800108 18.96974641 0.03560759 22.67800283 0.05658174 C26.55771993 0.07536823 30.43744414 0.07710053 34.31719971 0.08065796 C41.65879443 0.08997265 49.00025472 0.11457857 56.34179032 0.14470643 C64.70208998 0.17826843 73.06239614 0.19474096 81.42274642 0.20979273 C98.61574042 0.24112868 115.80860366 0.2938779 133.00149536 0.36076355 C132.99705414 0.95766998 132.99261292 1.55457642 132.98803711 2.16957092 C132.94388955 8.36592726 132.91366477 14.56223913 132.89163208 20.75871277 C132.88155644 23.07318434 132.86789561 25.38764314 132.85061646 27.70207214 C132.82643672 31.02323048 132.81502806 34.34422095 132.80618286 37.66545105 C132.79586029 38.70506989 132.78553772 39.74468872 132.77490234 40.81581116 C132.77467575 42.2570787 132.77467575 42.2570787 132.77444458 43.72746277 C132.77000336 44.57573639 132.76556213 45.42401001 132.76098633 46.29798889 C132.81134176 48.584249 132.81134176 48.584249 135.00149536 50.36076355 C149.85149536 50.69076355 164.70149536 51.02076355 180.00149536 51.36076355 C180.00149536 122.64076355 180.00149536 193.92076355 180.00149536 267.36076355 C157.54087036 267.42263855 135.08024536 267.48451355 111.93899536 267.54826355 C104.87098511 267.57557556 97.80297485 267.60288757 90.52078247 267.63102722 C81.82876587 267.64457703 81.82876587 267.64457703 77.74784851 267.64709473 C74.92343441 267.64986748 72.09919286 267.66102 69.27482605 267.67749023 C65.65361382 267.69832208 62.03264651 267.70419087 58.41137993 267.69998038 C56.4802925 267.70126776 54.54923108 267.71722468 52.61821651 267.7340498 C39.6898694 267.68874964 27.44970592 265.6332861 16.00149536 259.36076355 C15.09915161 258.86834167 14.19680786 258.3759198 13.26712036 257.86857605 C-3.81898184 247.78101854 -14.09122904 232.27378279 -18.99850464 213.36076355 C-19.85697812 208.32310877 -20.14509964 203.41372736 -20.13894653 198.31498718 C-20.14340322 197.14348641 -20.14340322 197.14348641 -20.14794993 195.94831896 C-20.15658048 193.34685714 -20.15814034 190.74544164 -20.15963745 188.14396667 C-20.16426943 186.27254133 -20.1692946 184.40111692 -20.17468262 182.5296936 C-20.18776744 177.45748617 -20.1942433 172.38529196 -20.19869328 167.3130703 C-20.20162886 164.1428548 -20.20573447 160.97264289 -20.21019745 157.8024292 C-20.2238588 147.87923878 -20.2335335 137.95605658 -20.23739934 128.03285742 C-20.24188422 116.58474305 -20.25945781 105.13674782 -20.28839993 93.68866968 C-20.31001175 84.832439 -20.32010327 75.97624187 -20.32144046 67.1199851 C-20.32248835 61.83305619 -20.32839365 56.54623949 -20.34626007 51.25933838 C-20.36273322 46.28854566 -20.36489991 41.31794964 -20.35612106 36.34713936 C-20.35535043 34.52465348 -20.35969689 32.70215705 -20.36957932 30.8796978 C-20.38229496 28.38841124 -20.37642446 25.89782192 -20.36599731 23.40653992 C-20.37405372 22.68853352 -20.38211012 21.97052712 -20.39041066 21.23076296 C-20.32891418 14.93213359 -18.75818224 10.45335313 -14.68600464 5.61076355 C-10.03754564 1.71903043 -6.06883982 -0.01646159 0 0 Z M77.00149536 14.36076355 C76.69097695 16.65466786 76.69097695 16.65466786 76.73587036 19.29826355 C76.73329224 20.27537292 76.73071411 21.2524823 76.72805786 22.25920105 C76.73579224 23.28271667 76.74352661 24.3062323 76.75149536 25.36076355 C76.74376099 26.38427917 76.73602661 27.4077948 76.72805786 28.46232605 C76.73063599 29.43943542 76.73321411 30.4165448 76.73587036 31.42326355 C76.73812622 32.32174011 76.74038208 33.22021667 76.7427063 34.1459198 C76.79340594 36.5661852 76.79340594 36.5661852 79.00149536 38.36076355 C82.46092869 38.8116803 85.9535397 38.68482777 89.43899536 38.67326355 C90.40643677 38.68937683 91.37387817 38.70549011 92.37063599 38.72209167 C93.29940552 38.72273621 94.22817505 38.72338074 95.18508911 38.7240448 C96.46210693 38.72851624 96.46210693 38.72851624 97.7649231 38.733078 C100.04733889 38.51755298 100.04733889 38.51755298 101.77761841 37.12321472 C103.33597313 34.87909688 103.38847406 33.51781999 103.39993286 30.79826355 C103.40380005 29.91912292 103.40766724 29.0399823 103.41165161 28.13420105 C103.40005005 27.21896667 103.38844849 26.3037323 103.37649536 25.36076355 C103.38809692 24.44552917 103.39969849 23.5302948 103.41165161 22.58732605 C103.40585083 21.26861511 103.40585083 21.26861511 103.39993286 19.92326355 C103.39654907 19.12017761 103.39316528 18.31709167 103.38967896 17.4896698 C102.8981059 14.79374716 102.24279964 13.92243659 100.00149536 12.36076355 C97.7186739 11.91652107 97.7186739 11.91652107 95.18508911 11.9974823 C94.25631958 11.99812683 93.32755005 11.99877136 92.37063599 11.99943542 C91.40319458 12.01554871 90.43575317 12.03166199 89.43899536 12.04826355 C88.46768677 12.04504089 87.49637817 12.04181824 86.49563599 12.03849792 C81.20943076 11.74922467 81.20943076 11.74922467 77.00149536 14.36076355 Z M13.00149536 67.36076355 C12.59485832 69.97091299 12.4399186 72.15664877 12.47024536 74.76701355 C12.46641846 75.48812317 12.46259155 76.20923279 12.45864868 76.95219421 C12.45592933 78.47527972 12.46329243 79.99841191 12.48001099 81.52140808 C12.50142437 83.85303336 12.48021452 86.18157787 12.45462036 88.5131073 C12.45726364 89.99358285 12.46238863 91.47405649 12.47024536 92.95451355 C12.46214844 93.65145325 12.45405151 94.34839294 12.44570923 95.06645203 C12.50444456 98.09798338 12.64256467 99.92801874 14.60891724 102.29875183 C17.79208612 103.71168904 20.3322109 103.74946763 23.81399536 103.75920105 C24.46473022 103.76207123 25.11546509 103.76494141 25.78591919 103.76789856 C27.15759149 103.76993411 28.52929315 103.76443978 29.90090942 103.75187683 C31.99499701 103.7358134 34.08715497 103.75174012 36.18118286 103.7709198 C37.5171246 103.76893727 38.85306514 103.7650934 40.18899536 103.75920105 C41.39942505 103.75581726 42.60985474 103.75243347 43.85696411 103.74894714 C47.24596399 103.33058458 48.62753479 102.7722599 51.00149536 100.36076355 C52.75629597 95.09636172 52.2285852 89.49565685 52.25149536 83.98576355 C52.27212036 82.7534198 52.29274536 81.52107605 52.31399536 80.25138855 C52.31915161 79.06287292 52.32430786 77.8743573 52.32962036 76.64982605 C52.33896606 75.56395203 52.34831177 74.478078 52.35794067 73.35929871 C51.95413314 69.96233693 51.02350781 68.09472622 49.00149536 65.36076355 C44.713848 63.21693987 39.01417139 64.13378852 34.25296021 64.12052917 C32.14139284 64.11083197 30.03080262 64.07981285 27.91946411 64.04826355 C26.5744178 64.04173235 25.22936454 64.03648234 23.88430786 64.03263855 C22.66114868 64.02329285 21.4379895 64.01394714 20.17776489 64.00431824 C16.66621239 64.39838946 15.25422415 64.63113969 13.00149536 67.36076355 Z M81.91311646 103.28825378 C79.21936817 107.61786071 79.33453887 111.1092834 79.44290161 116.1146698 C79.445233 117.0525383 79.44756439 117.9904068 79.44996643 118.95669556 C79.45968871 120.93449532 79.4814408 122.91226785 79.51443481 124.88981628 C79.56388255 127.9163588 79.57591939 130.94127522 79.58157349 133.96818542 C79.59565883 135.89203084 79.611863 137.81586215 79.63040161 139.7396698 C79.63576431 140.6439119 79.64112701 141.54815399 79.64665222 142.47979736 C79.67063332 143.74647499 79.67063332 143.74647499 79.69509888 145.03874207 C79.70573868 145.77866898 79.71637848 146.51859589 79.7273407 147.28094482 C80.04436789 149.68600733 80.73082924 151.30125455 82.00149536 153.36076355 C84.35230346 154.5361676 85.78264961 154.49962944 88.40359497 154.52189636 C89.77027565 154.53630768 89.77027565 154.53630768 91.16456604 154.55101013 C92.15102615 154.55526001 93.13748627 154.55950989 94.15383911 154.56388855 C95.16491226 154.56958862 96.17598541 154.5752887 97.21769714 154.5811615 C99.35875398 154.59061771 101.4998254 154.59714794 103.64089966 154.60099792 C106.92216231 154.61071371 110.20280142 154.64173567 113.48391724 154.67326355 C115.56138746 154.67979241 117.63886218 154.68504334 119.71633911 154.68888855 C120.70077499 154.70123535 121.68521088 154.71358215 122.69947815 154.7263031 C124.07088707 154.72180145 124.07088707 154.72180145 125.47000122 154.71720886 C126.67673744 154.72267731 126.67673744 154.72267731 127.90785217 154.72825623 C130.58361673 154.25858504 131.44494504 153.57356702 133.00149536 151.36076355 C133.46106625 149.18882313 133.46106625 149.18882313 133.4055481 146.75334167 C133.41823227 145.822276 133.43091644 144.89121033 133.44398499 143.93193054 C133.44104935 142.92875793 133.43811371 141.92558533 133.43508911 140.89201355 C133.44033096 139.8601593 133.44557281 138.82830505 133.45097351 137.7651825 C133.45739855 135.58302206 133.45605052 133.40082701 133.44754028 131.21867371 C133.43902773 127.87348521 133.46779039 124.5300021 133.49954224 121.1849823 C133.50115419 119.06649323 133.50057683 116.94800113 133.49758911 114.82951355 C133.50882309 113.82634094 133.52005707 112.82316833 133.53163147 111.78959656 C133.52225052 110.85853088 133.51286957 109.92746521 133.50320435 108.96818542 C133.50303818 108.14894592 133.50287201 107.32970642 133.50270081 106.48564148 C133.16317014 104.21507287 133.16317014 104.21507287 131.2460022 102.5990448 C128.78515119 101.24140774 127.3757869 100.97182211 124.587677 100.94084167 C123.7232045 100.92492981 122.85873199 100.90901794 121.96806335 100.8926239 C121.04194748 100.89242249 120.1158316 100.89222107 119.16165161 100.89201355 C118.20254379 100.88440002 117.24343597 100.8767865 116.25526428 100.86894226 C114.22872519 100.85814652 112.20213048 100.85528601 110.17556763 100.85978699 C107.07818645 100.8607591 103.98328439 100.81913606 100.88626099 100.77482605 C98.91556302 100.76961874 96.94485646 100.76693086 94.97415161 100.76701355 C94.05005997 100.75061829 93.12596832 100.73422302 92.1738739 100.71733093 C87.91923764 100.76296262 85.58317995 100.99772799 81.91311646 103.28825378 Z " fill="#453D3C" transform="translate(256.9985046386719,101.63923645019531)"/>
<path d="M0 0 C1.14043762 -0.00175232 2.28087524 -0.00350464 3.45587158 -0.00531006 C7.21693452 -0.00970366 10.97795028 -0.00680031 14.73901367 -0.00341797 C17.35121164 -0.00409149 19.96340955 -0.00506192 22.5756073 -0.00631714 C28.04373689 -0.00813333 33.51185294 -0.00574562 38.97998047 -0.00097656 C45.3080315 0.00447862 51.63605039 0.00269211 57.96410066 -0.00280297 C64.05205197 -0.00787835 70.13998897 -0.00735368 76.22794151 -0.00442123 C78.82003471 -0.00375203 81.41212872 -0.00458014 84.00422096 -0.00690079 C87.61481569 -0.00942493 91.22534749 -0.00559074 94.8359375 0 C95.91695236 -0.00202423 96.99796722 -0.00404846 98.11174011 -0.00613403 C99.08889984 -0.00331421 100.06605957 -0.00049438 101.0728302 0.00241089 C101.92691373 0.00278791 102.78099726 0.00316494 103.6609621 0.00355339 C105.59448242 0.12939453 105.59448242 0.12939453 106.59448242 1.12939453 C106.88243347 7.30980736 106.15108485 13.05906166 105.03198242 19.12939453 C104.85779785 20.07564697 104.68361328 21.02189941 104.50415039 21.99682617 C101.52099996 37.3879155 97.29254321 52.66533341 90.46557617 66.81298828 C88.13510226 75.68551003 94.03181823 87.56114176 96.65307617 96.24267578 C97.16220868 97.93711254 97.67107857 99.63162824 98.17970276 101.32621765 C99.24952994 104.88823291 100.32142924 108.44961521 101.39501953 112.01049805 C102.73543933 116.45641136 104.0725241 120.90331709 105.40817833 125.35066414 C106.71778235 129.71086096 108.02891208 134.07059829 109.34057617 138.43017578 C109.59905712 139.28930698 109.85753807 140.14843819 110.12385178 141.03360367 C112.9988391 150.58389597 115.89457925 160.12730075 118.83325195 169.65820312 C119.0921285 170.49924056 119.35100504 171.340278 119.61772633 172.20680141 C120.84740226 176.20162807 122.08092049 180.19517249 123.32237244 184.18635559 C123.75838643 185.59984973 124.19423312 187.01339549 124.62988281 188.42700195 C125.01076553 189.65416428 125.39164825 190.8813266 125.78407288 192.14567566 C126.59448242 195.12939453 126.59448242 195.12939453 126.59448242 198.12939453 C119.57775546 197.52929663 113.06758947 196.12707854 106.27001953 194.31860352 C103.99731189 193.72603207 101.72451627 193.13379798 99.4516449 192.54185486 C98.25796232 192.22894941 97.06427975 191.91604397 95.83442497 191.59365654 C88.80137706 189.75958448 81.75432366 187.97997979 74.70975101 186.19079292 C67.27841433 184.30224144 59.85290579 182.3952333 52.44042969 180.43383789 C45.89379026 178.70171592 39.33391751 177.03010428 32.7630024 175.39253426 C30.27298318 174.76143319 27.78792843 174.11037494 25.3086071 173.43847466 C9.07645776 168.62832094 9.07645776 168.62832094 -6.71044922 172.63891602 C-9.01103179 174.05632084 -11.19111216 175.57450496 -13.40551758 177.12939453 C-15.22512181 178.02111971 -17.06257682 178.87930207 -18.92895508 179.66845703 C-19.73187988 180.01811523 -20.53480469 180.36777344 -21.36206055 180.72802734 C-41.93419196 189.45861895 -64.97118914 198.25958755 -87.62109375 198.15209961 C-88.96659554 198.14718254 -88.96659554 198.14718254 -90.33927917 198.14216614 C-91.02113785 198.13795151 -91.70299652 198.13373688 -92.40551758 198.12939453 C-92.49948934 183.31581651 -92.56975301 168.50226181 -92.61276627 153.68844795 C-92.63328027 146.80814702 -92.66118336 139.92803264 -92.70727539 133.04785156 C-92.75182069 126.39530788 -92.77472419 119.74299697 -92.78502655 113.0902977 C-92.79235878 110.56525518 -92.80667497 108.04022198 -92.82843781 105.5152626 C-93.07594634 75.58036291 -87.49112637 50.09226136 -66.15161133 27.91455078 C-65.24540039 26.99544922 -64.33918945 26.07634766 -63.40551758 25.12939453 C-62.67461914 24.38560547 -61.9437207 23.64181641 -61.19067383 22.87548828 C-44.9625571 7.43309042 -22.01186921 -0.0416074 0 0 Z " fill="#4CB848" transform="translate(328.405517578125,410.87060546875)"/>
<path d="M0 0 C0.96967712 -0.0071553 1.93935425 -0.01431061 2.93841553 -0.02168274 C4.01149963 -0.02437164 5.08458374 -0.02706055 6.19018555 -0.02983093 C7.31394592 -0.03640213 8.4377063 -0.04297333 9.59552002 -0.04974365 C13.3393154 -0.06955479 17.0830703 -0.08116393 20.8269043 -0.09111023 C22.10661102 -0.09518576 23.38631775 -0.09926128 24.70480347 -0.10346031 C30.79223828 -0.12220644 36.87965285 -0.13675461 42.96711063 -0.14507228 C49.96039787 -0.15478712 56.95336368 -0.18094059 63.94653797 -0.22157317 C70.02535692 -0.25565893 76.10404375 -0.26724165 82.18295288 -0.27127647 C84.75347046 -0.27611771 87.32398525 -0.28766042 89.8944397 -0.30631447 C116.37661963 -0.48636518 138.19412805 3.7152454 159.5144043 20.14717102 C160.63588867 21.00955383 160.63588867 21.00955383 161.7800293 21.88935852 C175.34346091 33.04981996 185.45071632 49.39002393 190.5144043 66.14717102 C190.77024292 66.97754379 191.02608154 67.80791656 191.28967285 68.66345215 C194.57763736 81.35790678 193.88933112 94.31196359 193.80737305 107.32685852 C193.80176908 109.95243588 193.79750277 112.57801639 193.79450989 115.20359802 C193.7852488 121.37267124 193.76071711 127.54158171 193.73046142 133.71058381 C193.69673048 140.74339968 193.68038481 147.77622402 193.66537511 154.80910087 C193.63416093 169.25520754 193.58151829 183.701187 193.5144043 198.14717102 C192.07082881 198.15453823 190.62724246 198.15980028 189.18365479 198.16416931 C188.37975941 198.16732462 187.57586403 198.17047993 186.74760818 198.17373085 C184.29623018 198.14457624 181.97582347 197.90478729 179.5612793 197.48310852 C178.70550293 197.3337384 177.84972656 197.18436829 176.96801758 197.0304718 C176.0758252 196.86273254 175.18363281 196.69499329 174.2644043 196.52217102 C172.839104 196.25702698 172.839104 196.25702698 171.38500977 195.98652649 C149.60523081 191.76006236 129.06645508 184.5695452 109.5144043 174.14717102 C108.84376953 173.7925177 108.17313477 173.43786438 107.48217773 173.07246399 C92.46802413 165.07618621 79.24530186 155.39378409 66.5144043 144.14717102 C65.99604004 143.69197083 65.47767578 143.23677063 64.94360352 142.76777649 C53.47905979 132.65411601 43.50577998 121.50010721 34.5144043 109.14717102 C34.11785645 108.60705383 33.72130859 108.06693665 33.31274414 107.51045227 C12.71742433 79.11706826 -7.14612684 37.1679233 -5.4855957 1.14717102 C-3.88825858 -0.4501661 -2.21392838 0.01116797 0 0 Z " fill="#ED5623" transform="translate(5.485595703125,410.8528289794922)"/>
<path d="M0 0 C0.80355423 0.00356003 1.60710846 0.00712006 2.43501282 0.01078796 C3.34829597 0.01765373 3.34829597 0.01765373 4.2800293 0.0246582 C4.37395032 15.11627406 4.4442404 30.20787636 4.48727798 45.29971981 C4.50780252 52.30896276 4.53572648 59.31802292 4.58178711 66.32714844 C4.62629227 73.10287241 4.64922817 79.87840719 4.65953827 86.65426826 C4.66687717 89.22758518 4.68120686 91.80089282 4.70294952 94.37412834 C4.91747655 120.83770234 0.75527242 142.73933536 -15.7199707 164.0246582 C-16.33356445 164.82258789 -16.9471582 165.62051758 -17.5793457 166.44262695 C-31.71193 183.50440073 -53.78191058 195.19519396 -75.7199707 198.0246582 C-79.55254069 198.16951355 -83.38235398 198.16123887 -87.21728516 198.15405273 C-88.36747635 198.15580505 -89.51766754 198.15755737 -90.70271301 198.15936279 C-94.49624143 198.16375667 -98.28972308 198.16085294 -102.08325195 198.1574707 C-104.71787017 198.15814422 -107.35248832 198.15911464 -109.98710632 198.16036987 C-115.50231432 198.16218611 -121.01750889 198.15979822 -126.53271484 198.1550293 C-132.91529736 198.14957422 -139.297848 198.15136052 -145.68042976 198.1568557 C-151.82070675 198.16193107 -157.96096957 198.16140641 -164.10124779 198.15847397 C-166.71566968 198.15780476 -169.33009238 198.1586329 -171.94451332 198.16095352 C-175.58624087 198.16347764 -179.22790603 198.1596435 -182.86962891 198.15405273 C-183.95999451 198.15607697 -185.05036011 198.1581012 -186.17376709 198.16018677 C-187.15934097 198.15736694 -188.14491486 198.15454712 -189.16035461 198.15164185 C-190.45254142 198.15107631 -190.45254142 198.15107631 -191.77083302 198.15049934 C-193.7199707 198.0246582 -193.7199707 198.0246582 -194.7199707 197.0246582 C-195.65875932 161.01540896 -177.31955873 120.53707937 -156.7199707 92.0246582 C-156.29087402 91.43023926 -155.86177734 90.83582031 -155.41967773 90.22338867 C-150.57252985 83.58861412 -145.36298271 77.32117993 -139.7902832 71.2824707 C-137.93568204 69.25990566 -136.1696191 67.18981836 -134.4074707 65.0871582 C-103.47115351 29.74152684 -47.45507487 -0.27339927 0 0 Z " fill="#56B1E4" transform="translate(194.719970703125,170.975341796875)"/>
<path d="M0 0 C0.94470657 -0.00960754 1.88941315 -0.01921509 2.86274719 -0.02911377 C4.39864754 -0.03548859 4.39864754 -0.03548859 5.96557617 -0.04199219 C7.54165901 -0.0505423 7.54165901 -0.0505423 9.14958191 -0.05926514 C11.37640371 -0.06872371 13.60323956 -0.07525251 15.83007812 -0.07910156 C19.23421744 -0.08879789 22.63775077 -0.11980989 26.04174805 -0.15136719 C28.20385383 -0.15789805 30.36596394 -0.16314819 32.52807617 -0.16699219 C34.05486748 -0.18551239 34.05486748 -0.18551239 35.61250305 -0.20440674 C44.69784896 -0.17583089 44.69784896 -0.17583089 48.44604492 3.16113281 C50.30195822 6.19507862 50.70476057 8.501598 50.73657227 12.03393555 C50.74933197 12.99851181 50.76209167 13.96308807 50.77523804 14.95689392 C50.77746368 15.99237869 50.77968933 17.02786346 50.78198242 18.09472656 C50.78863922 19.16481461 50.79529602 20.23490265 50.80215454 21.3374176 C50.81227462 23.59935793 50.81697176 25.86132807 50.81665039 28.12329102 C50.82102436 31.58236874 50.8573544 35.04017136 50.89526367 38.49902344 C50.90113177 40.69758678 50.90510121 42.89615619 50.90698242 45.09472656 C50.92135345 46.1281871 50.93572449 47.16164764 50.95053101 48.22642517 C50.9048737 55.40698965 50.9048737 55.40698965 48.54223633 59.2902832 C45.45563387 62.0450741 43.75483851 62.29228233 39.70849609 62.33813477 C38.72374802 62.35097 37.73899994 62.36380524 36.72441101 62.37702942 C35.65672989 62.38441635 34.58904877 62.39180328 33.48901367 62.39941406 C32.39389969 62.40748581 31.29878571 62.41555756 30.17048645 62.4238739 C27.84951362 62.43772186 25.52852037 62.44844081 23.20751953 62.45629883 C19.65838009 62.47351236 16.11017176 62.51739341 12.5612793 62.56152344 C10.30803095 62.57165006 8.05477467 62.58016626 5.80151367 62.58691406 C4.20910103 62.61317619 4.20910103 62.61317619 2.58451843 62.63996887 C-4.79741969 62.61824662 -4.79741969 62.61824662 -8.70117188 60.25952148 C-11.42879668 57.17032196 -11.68712084 55.45668616 -11.74682617 51.42358398 C-11.7628891 50.43883591 -11.77895203 49.45408783 -11.79550171 48.4394989 C-11.83991303 43.933875 -11.88101476 39.42839895 -11.90405273 34.92260742 C-11.92061757 32.54522923 -11.9479142 30.16790095 -11.98608398 27.79077148 C-12.04080763 24.36578494 -12.0627205 20.94196623 -12.07739258 17.51660156 C-12.10006195 16.45499313 -12.12273132 15.3933847 -12.14608765 14.29960632 C-12.12489687 6.90743282 -12.12489687 6.90743282 -9.14624023 3.01391602 C-5.74314853 0.58162529 -4.11331864 0.03370859 0 0 Z " fill="#453D3C" transform="translate(421.553955078125,18.8388671875)"/>
<path d="M0 0 C0.96147949 -0.0038269 1.92295898 -0.00765381 2.91357422 -0.01159668 C4.9443466 -0.01431602 6.97515399 -0.00695329 9.00585938 0.00976562 C12.1140757 0.03117475 15.21998056 0.00996454 18.328125 -0.015625 C20.30208843 -0.01298173 22.27605043 -0.00785676 24.25 0 C25.17925293 -0.00809692 26.10850586 -0.01619385 27.06591797 -0.02453613 C33.4839458 0.0687249 33.4839458 0.0687249 36.70410156 2.39208984 C39.9466557 7.27374953 39.03273356 13.84678909 39.125 19.53125 C39.14546387 20.57539063 39.16592773 21.61953125 39.18701172 22.6953125 C39.24708153 26.18234016 39.28447302 29.66882355 39.3125 33.15625 C39.33231934 34.86385498 39.33231934 34.86385498 39.35253906 36.60595703 C39.35350586 37.68731934 39.35447266 38.76868164 39.35546875 39.8828125 C39.35957764 40.85041504 39.36368652 41.81801758 39.36791992 42.81494141 C39.02174721 46.68581333 38.13694855 49.35602692 35.58764648 52.31665039 C31.7302058 54.21917517 27.9678583 53.97896753 23.72265625 53.96484375 C22.80794052 53.9700856 21.89322479 53.97532745 20.95079041 53.98072815 C19.01839207 53.98714466 17.08595465 53.98581615 15.15356445 53.97729492 C12.20127582 53.96878969 9.25092542 53.99754331 6.29882812 54.02929688 C4.41927141 54.03090916 2.53971128 54.03033083 0.66015625 54.02734375 C-0.66035988 54.04419472 -0.66035988 54.04419472 -2.0075531 54.06138611 C-5.8271086 54.01809008 -8.42590113 53.73696741 -11.93164062 52.13110352 C-14.93792768 48.1092504 -14.57216766 44.33448459 -14.50390625 39.4375 C-14.50631821 38.45382446 -14.50873016 37.47014893 -14.51121521 36.45666504 C-14.51023655 34.37878382 -14.49683861 32.3008766 -14.47192383 30.22314453 C-14.43762018 27.04239339 -14.45126282 23.86442079 -14.47070312 20.68359375 C-14.46380457 18.66405067 -14.45413211 16.64451477 -14.44140625 14.625 C-14.44636612 13.67387329 -14.45132599 12.72274658 -14.45643616 11.74279785 C-14.38885769 7.95462186 -14.28864693 5.2889025 -12.45678711 1.93359375 C-8.40698033 -0.26613109 -4.53876981 -0.03954798 0 0 Z " fill="#453D3C" transform="translate(532.875,130.46875)"/>
<path d="M0 0 C0.83103745 -0.00960754 1.66207489 -0.01921509 2.51829529 -0.02911377 C3.86674278 -0.03548859 3.86674278 -0.03548859 5.24243164 -0.04199219 C6.6258651 -0.0505423 6.6258651 -0.0505423 8.0372467 -0.05926514 C9.98998871 -0.06871967 11.94274671 -0.07525091 13.89550781 -0.07910156 C16.88708186 -0.08881683 19.87797178 -0.11983974 22.86938477 -0.15136719 C24.76456297 -0.15789617 26.65974609 -0.16314705 28.55493164 -0.16699219 C29.90034279 -0.18551239 29.90034279 -0.18551239 31.27293396 -0.20440674 C32.52421837 -0.19990509 32.52421837 -0.19990509 33.80078125 -0.1953125 C34.90092812 -0.20078094 34.90092812 -0.20078094 36.02330017 -0.20635986 C38.54630568 0.27113108 39.39951468 1.1591627 40.96508789 3.16113281 C42.21824606 6.92060731 42.14681429 10.45394559 42.16821289 14.37207031 C42.17391296 15.17722076 42.17961304 15.98237122 42.18548584 16.81192017 C42.19492725 18.51489959 42.20146641 20.21789721 42.20532227 21.92089844 C42.2150259 24.51953154 42.24605573 27.11737284 42.27758789 29.71582031 C42.28411856 31.37206563 42.28936878 33.02831658 42.29321289 34.68457031 C42.30555969 35.45868256 42.31790649 36.2327948 42.33062744 37.03036499 C42.3119175 41.58585932 41.81463515 44.55107035 38.96508789 48.16113281 C33.83327673 50.72703839 25.71230622 49.47457193 19.99902344 49.51123047 C18.1066457 49.52778614 16.21433039 49.55507116 14.32226562 49.59326172 C11.59219975 49.64807753 8.86359899 49.66991099 6.13305664 49.68457031 C5.290186 49.70723969 4.44731537 49.72990906 3.5789032 49.75326538 C-0.53143857 49.73851139 -2.55360712 49.47446066 -6.07299805 47.18334961 C-8.72860324 43.09254116 -8.70806406 40.0606236 -8.59350586 35.28222656 C-8.59117447 34.43314224 -8.58884308 33.58405792 -8.58644104 32.70924377 C-8.57672407 30.91974802 -8.55498405 29.13028209 -8.52197266 27.34106445 C-8.47251256 24.6041911 -8.46048698 21.86911618 -8.45483398 19.13183594 C-8.44074873 17.39028038 -8.42454459 15.6487404 -8.40600586 13.90722656 C-8.40064316 13.09047958 -8.39528046 12.2737326 -8.38975525 11.43223572 C-8.23833248 4.19260568 -8.23833248 4.19260568 -6.03491211 1.16113281 C-3.77337999 0.03036675 -2.51067562 0.02339894 0 0 Z " fill="#453D3C" transform="translate(505.034912109375,-0.1611328125)"/>
<path d="M0 0 C1.2148407 -0.00430527 1.2148407 -0.00430527 2.45422363 -0.00869751 C4.16561584 -0.01073792 5.87703138 -0.00520959 7.58837891 0.00732422 C10.2091889 0.02337893 12.82845677 0.00747556 15.44921875 -0.01171875 C17.11198257 -0.00973631 18.77474544 -0.00589263 20.4375 0 C21.22193481 -0.00607269 22.00636963 -0.01214539 22.8145752 -0.0184021 C25.69460753 0.01886228 28.11190919 0.09167136 30.71142578 1.40576172 C32.36877528 4.68430913 32.14498888 8.08846796 32.1171875 11.6796875 C32.12005768 12.4895813 32.12292786 13.2994751 32.12588501 14.13391113 C32.12792542 15.84530334 32.12239709 17.55671888 32.10986328 19.26806641 C32.09380857 21.8888764 32.10971194 24.50814427 32.12890625 27.12890625 C32.12692381 28.79167007 32.12308013 30.45443294 32.1171875 32.1171875 C32.12629654 33.29383972 32.12629654 33.29383972 32.1355896 34.4942627 C32.09832522 37.37429503 32.02551614 39.79159669 30.71142578 42.39111328 C27.43287837 44.04846278 24.02871954 43.82467638 20.4375 43.796875 C19.2226593 43.80118027 19.2226593 43.80118027 17.98327637 43.80557251 C16.27188416 43.80761292 14.56046862 43.80208459 12.84912109 43.78955078 C10.2283111 43.77349607 7.60904323 43.78939944 4.98828125 43.80859375 C3.32551743 43.80661131 1.66275456 43.80276763 0 43.796875 C-0.78443481 43.80294769 -1.56886963 43.80902039 -2.3770752 43.8152771 C-5.25710753 43.77801272 -7.67440919 43.70520364 -10.27392578 42.39111328 C-11.93127528 39.11256587 -11.70748888 35.70840704 -11.6796875 32.1171875 C-11.68255768 31.3072937 -11.68542786 30.4973999 -11.68838501 29.66296387 C-11.69042542 27.95157166 -11.68489709 26.24015612 -11.67236328 24.52880859 C-11.65630857 21.9079986 -11.67221194 19.28873073 -11.69140625 16.66796875 C-11.68942381 15.00520493 -11.68558013 13.34244206 -11.6796875 11.6796875 C-11.68576019 10.89525269 -11.69183289 10.11081787 -11.6980896 9.3026123 C-11.66082522 6.42257997 -11.58801614 4.00527831 -10.27392578 1.40576172 C-6.99537837 -0.25158778 -3.59121954 -0.02780138 0 0 Z " fill="#453D3C" transform="translate(471.28125,103.6015625)"/>
<path d="M0 0 C0.65073486 -0.00191345 1.30146973 -0.0038269 1.97192383 -0.00579834 C3.34359119 -0.00715537 4.7152716 -0.00349265 6.08691406 0.00488281 C8.18063336 0.01558988 10.27349474 0.00497191 12.3671875 -0.0078125 C13.70312688 -0.00649082 15.03906574 -0.00392825 16.375 0 C17.58542969 0.00225586 18.79585937 0.00451172 20.04296875 0.00683594 C23.08132525 0.25688702 24.73963092 0.48880969 27.1875 2.265625 C30.77293849 7.1430749 29.55937929 14.22109209 29.55810547 20.01953125 C29.56248622 22.25858201 29.59884965 24.49567174 29.63671875 26.734375 C29.64258614 28.16145162 29.64655605 29.58853756 29.6484375 31.015625 C29.65665527 32.30984375 29.66487305 33.6040625 29.67333984 34.9375 C29.10953388 38.79971255 28.23597018 39.92512705 25.1875 42.265625 C20.80625169 44.45624916 14.93418656 43.53395302 10.06665039 43.56079102 C7.89339761 43.57797949 5.72167654 43.62186307 3.54882812 43.66601562 C2.1614695 43.67614526 0.77409796 43.68466052 -0.61328125 43.69140625 C-1.87309814 43.70598877 -3.13291504 43.72057129 -4.4309082 43.7355957 C-8.40863699 43.1827744 -10.02945853 42.11234869 -12.8125 39.265625 C-14.46880173 34.29671981 -14.0375923 29.12765489 -14.05273438 23.92382812 C-14.06243322 21.90452774 -14.09346756 19.88624888 -14.125 17.8671875 C-14.13015625 16.5884375 -14.1353125 15.3096875 -14.140625 13.9921875 C-14.1499707 12.82252441 -14.15931641 11.65286133 -14.16894531 10.44775391 C-13.77042088 6.88996801 -13.01298618 5.07059256 -10.8125 2.265625 C-7.43882169 -0.21601088 -4.08865226 0.00761996 0 0 Z " fill="#453D3C" transform="translate(571.8125,48.734375)"/>
<path d="M0 0 C0.969375 -0.00386719 1.93875 -0.00773437 2.9375 -0.01171875 C3.948125 -0.00011719 4.95875 0.01148437 6 0.0234375 C7.010625 0.01183594 8.02125 0.00023438 9.0625 -0.01171875 C10.031875 -0.00785156 11.00125 -0.00398438 12 0 C12.886875 0.00338379 13.77375 0.00676758 14.6875 0.01025391 C17 0.3984375 17 0.3984375 18.78979492 1.5949707 C20.43082719 4.04046302 20.37262912 5.71989107 20.36328125 8.65234375 C20.36263672 9.67134766 20.36199219 10.69035156 20.36132812 11.74023438 C20.34521484 12.80306641 20.32910156 13.86589844 20.3125 14.9609375 C20.31733398 16.56098633 20.31733398 16.56098633 20.32226562 18.19335938 C20.26696528 26.13147222 20.26696528 26.13147222 18 28.3984375 C15.6015625 28.65722656 15.6015625 28.65722656 12.625 28.6640625 C11.55765625 28.66664062 10.4903125 28.66921875 9.390625 28.671875 C7.71226562 28.66027344 7.71226562 28.66027344 6 28.6484375 C4.88109375 28.65617187 3.7621875 28.66390625 2.609375 28.671875 C1.54203125 28.66929688 0.4746875 28.66671875 -0.625 28.6640625 C-1.60726563 28.66180664 -2.58953125 28.65955078 -3.6015625 28.65722656 C-6 28.3984375 -6 28.3984375 -8 26.3984375 C-8.45482767 22.60497259 -8.3240335 18.77852621 -8.3125 14.9609375 C-8.32861328 13.89810547 -8.34472656 12.83527344 -8.36132812 11.74023438 C-8.36197266 10.72123047 -8.36261719 9.70222656 -8.36328125 8.65234375 C-8.36775269 7.24964233 -8.36775269 7.24964233 -8.37231445 5.81860352 C-8 3.3984375 -8 3.3984375 -6.78979492 1.5949707 C-4.41939301 0.01028379 -2.840875 0.01083909 0 0 Z " fill="#453D3C" transform="translate(513,64.6015625)"/>
<path d="M0 0 C0.87140625 -0.00386719 1.7428125 -0.00773438 2.640625 -0.01171875 C3.54296875 -0.00011719 4.4453125 0.01148438 5.375 0.0234375 C6.72851562 0.00603516 6.72851562 0.00603516 8.109375 -0.01171875 C9.41648437 -0.00591797 9.41648437 -0.00591797 10.75 0 C11.54148437 0.00338379 12.33296875 0.00676758 13.1484375 0.01025391 C16.01761267 0.51047195 17.352755 1.30212487 19.375 3.3984375 C19.86083984 5.81860352 19.86083984 5.81860352 19.8359375 8.65234375 C19.83207031 9.67134766 19.82820312 10.69035156 19.82421875 11.74023438 C19.79972656 12.80306641 19.77523437 13.86589844 19.75 14.9609375 C19.74871094 16.02763672 19.74742187 17.09433594 19.74609375 18.19335938 C19.65575953 26.11767797 19.65575953 26.11767797 17.375 28.3984375 C13.39344664 28.85438696 9.37964871 28.72247163 5.375 28.7109375 C3.69664062 28.73510742 3.69664062 28.73510742 1.984375 28.75976562 C0.38335938 28.76073242 0.38335938 28.76073242 -1.25 28.76171875 C-2.23226562 28.76469971 -3.21453125 28.76768066 -4.2265625 28.77075195 C-5.01804687 28.64788818 -5.80953125 28.52502441 -6.625 28.3984375 C-9.60591108 23.92707088 -8.99329007 19.65902338 -9 14.3984375 C-9.02449219 13.3878125 -9.04898438 12.3771875 -9.07421875 11.3359375 C-9.07808594 10.3665625 -9.08195313 9.3971875 -9.0859375 8.3984375 C-9.09415527 7.5115625 -9.10237305 6.6246875 -9.11083984 5.7109375 C-8.625 3.3984375 -8.625 3.3984375 -6.88525391 1.61083984 C-4.3612874 0.25698181 -2.84662198 0.01217 0 0 Z " fill="#453D3C" transform="translate(591.625,168.6015625)"/>
<path d="M0 0 C1.11890625 0.00322266 2.2378125 0.00644531 3.390625 0.00976562 C5.06898438 -0.0144043 5.06898438 -0.0144043 6.78125 -0.0390625 C8.38226563 -0.0400293 8.38226563 -0.0400293 10.015625 -0.04101562 C10.99789063 -0.04399658 11.98015625 -0.04697754 12.9921875 -0.05004883 C14.17941406 0.13424683 14.17941406 0.13424683 15.390625 0.32226562 C17.52939092 3.5304145 17.64638928 4.40997292 17.65625 8.10351562 C17.66011719 9.48990234 17.66011719 9.48990234 17.6640625 10.90429688 C17.65632813 11.86722656 17.64859375 12.83015625 17.640625 13.82226562 C17.64835937 14.78519531 17.65609375 15.748125 17.6640625 16.74023438 C17.66148437 17.66449219 17.65890625 18.58875 17.65625 19.54101562 C17.65399414 20.38599609 17.65173828 21.23097656 17.64941406 22.1015625 C17.390625 24.32226562 17.390625 24.32226562 15.390625 27.32226562 C12.9921875 27.69458008 12.9921875 27.69458008 10.015625 27.68554688 C8.94828125 27.68490234 7.8809375 27.68425781 6.78125 27.68359375 C5.66234375 27.66748047 4.5434375 27.65136719 3.390625 27.63476562 C1.71226562 27.63959961 1.71226562 27.63959961 0 27.64453125 C-8.3425247 27.58911593 -8.3425247 27.58911593 -10.609375 25.32226562 C-10.86816406 23.015625 -10.86816406 23.015625 -10.875 20.16601562 C-10.87757813 19.14378906 -10.88015625 18.1215625 -10.8828125 17.06835938 C-10.87121094 15.46154297 -10.87121094 15.46154297 -10.859375 13.82226562 C-10.86710937 12.75105469 -10.87484375 11.67984375 -10.8828125 10.57617188 C-10.88023437 9.55394531 -10.87765625 8.53171875 -10.875 7.47851562 C-10.87274414 6.53814453 -10.87048828 5.59777344 -10.86816406 4.62890625 C-10.19870811 -1.33809364 -4.66920211 0.03101523 0 0 Z " fill="#453D3C" transform="translate(469.609375,163.677734375)"/>
</svg>
